<?xml version="1.0" encoding="iso-8859-1"?>
<!-- Uploaded to: SVG Repo, www.svgrepo.com, Generator: SVG Repo Mixer Tools -->
<svg height="800px" width="800px" version="1.1" id="Layer_1" xmlns="http://www.w3.org/2000/svg" xmlns:xlink="http://www.w3.org/1999/xlink" 
	 viewBox="0 0 512 512" xml:space="preserve">
<g transform="translate(1 1)">
	<polygon style="fill:#FFFFFF;" points="85.78,150.864 502.322,150.864 502.322,359.136 85.78,359.136 	"/>
	<g>
		<path style="fill:#0096E6;" d="M511,367.814H77.102V142.186H511V367.814z M94.458,350.458h399.186V159.542H94.458V350.458z"/>
		<path style="fill:#0096E6;" d="M85.78,428.559c-5.207,0-8.678-3.471-8.678-8.678v-60.746c0-5.207,3.471-8.678,8.678-8.678
			c5.207,0,8.678,3.471,8.678,8.678v60.746C94.458,425.088,90.986,428.559,85.78,428.559z M85.78,159.542
			c-5.207,0-8.678-3.471-8.678-8.678V81.441H42.39c-5.207,0-8.678-3.471-8.678-8.678s3.471-8.678,8.678-8.678h43.39
			c5.207,0,8.678,3.471,8.678,8.678v78.102C94.458,156.071,90.986,159.542,85.78,159.542z"/>
	</g>
	<path style="fill:#FFFFFF;" d="M207.271,463.271c0,19.092-15.62,34.712-34.712,34.712s-34.712-15.62-34.712-34.712
		c0-19.092,15.62-34.712,34.712-34.712S207.271,444.18,207.271,463.271L207.271,463.271z"/>
	<path style="fill:#0096E6;" d="M172.559,506.661c-24.298,0-43.39-19.092-43.39-43.39c0-24.298,19.092-43.39,43.39-43.39
		s43.39,19.092,43.39,43.39C215.949,487.569,196.858,506.661,172.559,506.661z M172.559,437.237
		c-14.753,0-26.034,11.281-26.034,26.034c0,14.753,11.281,26.034,26.034,26.034s26.034-11.281,26.034-26.034
		C198.593,448.519,187.312,437.237,172.559,437.237z"/>
	<path style="fill:#FFFFFF;" d="M415.542,463.271c0,19.092-15.62,34.712-34.712,34.712s-34.712-15.62-34.712-34.712
		c0-19.092,15.62-34.712,34.712-34.712S415.542,444.18,415.542,463.271L415.542,463.271z"/>
	<g>
		<path style="fill:#0096E6;" d="M380.831,506.661c-24.298,0-43.39-19.092-43.39-43.39c0-24.298,19.092-43.39,43.39-43.39
			s43.39,19.092,43.39,43.39C424.22,487.569,405.129,506.661,380.831,506.661z M380.831,437.237
			c-14.753,0-26.034,11.281-26.034,26.034c0,14.753,11.281,26.034,26.034,26.034c14.753,0,26.034-11.281,26.034-26.034
			C406.864,448.519,395.583,437.237,380.831,437.237z"/>
		<path style="fill:#0096E6;" d="M458.932,428.559H85.78c-5.207,0-8.678-3.471-8.678-8.678c0-5.207,3.471-8.678,8.678-8.678h373.153
			c5.207,0,8.678,3.471,8.678,8.678C467.61,425.088,464.139,428.559,458.932,428.559z M432.898,367.814
			c-5.207,0-8.678-3.471-8.678-8.678V298.39h-52.068v60.746c0,5.207-3.471,8.678-8.678,8.678s-8.678-3.471-8.678-8.678V298.39
			h-52.068v60.746c0,5.207-3.471,8.678-8.678,8.678c-5.207,0-8.678-3.471-8.678-8.678V298.39h-52.068v60.746
			c0,5.207-3.471,8.678-8.678,8.678s-8.678-3.471-8.678-8.678V298.39h-52.068v60.746c0,5.207-3.471,8.678-8.678,8.678
			c-5.207,0-8.678-3.471-8.678-8.678V298.39H85.78c-5.207,0-8.678-3.471-8.678-8.678c0-5.207,3.471-8.678,8.678-8.678h60.746
			v-52.068H85.78c-5.207,0-8.678-3.471-8.678-8.678c0-5.207,3.471-8.678,8.678-8.678h60.746v-60.746
			c0-5.207,3.471-8.678,8.678-8.678c5.207,0,8.678,3.471,8.678,8.678v60.746h52.068v-60.746c0-5.207,3.471-8.678,8.678-8.678
			s8.678,3.471,8.678,8.678v60.746h52.068v-60.746c0-5.207,3.471-8.678,8.678-8.678c5.207,0,8.678,3.471,8.678,8.678v60.746h52.068
			v-60.746c0-5.207,3.471-8.678,8.678-8.678s8.678,3.471,8.678,8.678v60.746h52.068v-60.746c0-5.207,3.471-8.678,8.678-8.678
			c5.207,0,8.678,3.471,8.678,8.678v60.746h60.746c5.207,0,8.678,3.471,8.678,8.678c0,5.207-3.471,8.678-8.678,8.678h-60.746v52.068
			h60.746c5.207,0,8.678,3.471,8.678,8.678c0,5.207-3.471,8.678-8.678,8.678h-60.746v60.746
			C441.576,364.342,438.105,367.814,432.898,367.814z M372.153,281.034h52.068v-52.068h-52.068V281.034z M302.729,281.034h52.068
			v-52.068h-52.068V281.034z M233.305,281.034h52.068v-52.068h-52.068V281.034z M163.881,281.034h52.068v-52.068h-52.068V281.034z"
			/>
	</g>
	<path style="fill:#D0E8F9;" d="M502.322,150.864v208.271"/>
	<path style="fill:#0096E6;" d="M502.322,367.814c-5.207,0-8.678-3.471-8.678-8.678V150.864c0-5.207,3.471-8.678,8.678-8.678
		c5.207,0,8.678,3.471,8.678,8.678v208.271C511,364.342,507.529,367.814,502.322,367.814z"/>
	<path style="fill:#FFFFFF;" d="M59.746,72.763c0,14.753-11.281,26.034-26.034,26.034S7.678,87.515,7.678,72.763
		s11.281-26.034,26.034-26.034S59.746,58.01,59.746,72.763L59.746,72.763z"/>
	<path style="fill:#0096E6;" d="M33.712,107.475C14.62,107.475-1,91.854-1,72.763s15.62-34.712,34.712-34.712
		s34.712,15.62,34.712,34.712S52.803,107.475,33.712,107.475z M33.712,55.407c-9.546,0-17.356,7.81-17.356,17.356
		s7.81,17.356,17.356,17.356s17.356-7.81,17.356-17.356S43.258,55.407,33.712,55.407z"/>
	<polygon style="fill:#D0E8F9;" points="129.169,81.441 250.661,81.441 250.661,150.864 129.169,150.864 	"/>
	<path style="fill:#0096E6;" d="M259.339,159.542H120.492v-86.78h138.847V159.542z M137.847,142.186h104.136V90.119H137.847V142.186
		z"/>
	<polygon style="fill:#D0E8F9;" points="250.661,12.017 389.508,12.017 389.508,150.864 250.661,150.864 	"/>
	<path style="fill:#0096E6;" d="M398.186,159.542H241.983V3.339h156.203V159.542z M259.339,142.186h121.492V20.695H259.339V142.186z
		"/>
	<polygon style="fill:#D0E8F9;" points="389.508,38.051 476.288,38.051 476.288,150.864 389.508,150.864 	"/>
	<path style="fill:#0096E6;" d="M484.966,159.542H380.831V29.373h104.136V159.542z M398.186,142.186h69.424V46.729h-69.424V142.186z
		"/>
</g>
</svg>